<svg xmlns="http://www.w3.org/2000/svg" version="1.1" xmlns:xlink="http://www.w3.org/1999/xlink" xmlns:svgjs="http://svgjs.dev/svgjs" width="100%" height="100%" viewBox="0 0 1000 600"><rect width="1000" height="600" x="0" y="0" fill="#234e70"/><g><rect width="333.3333333333333" height="333.3333333333333" rx="13.333333333333334" ry="13.333333333333334" y="127.95957632966696" fill="#fbf8be" transform="matrix(1.1821742933483406,0,0,1.1821742933483406,0,-48.299575401565946)" x="105.73734283447266"/><path d="M223.176738028479 344.26259552842185L223.176738028479 243.92926219508854Q223.176738028479 239.35350461933095 223.60098045272144 234.95956522539157Q224.02522287696388 230.5959288617552 225.6312834830245 227.20198946781582Q227.23734408908507 223.77774704357338 230.41916227090326 221.71714098296732Q233.6312834830245 219.62623189205823 239.176738028479 219.62623189205823L239.176738028479 219.62623189205823Q244.8131016648427 219.62623189205823 248.11613196787295 221.71714098296732Q251.41916227090326 223.77774704357338 253.05552590726694 227.20198946781582Q254.72219257393357 230.5959288617552 255.146434998176 234.95956522539157Q255.57067742241844 239.35350461933095 255.57067742241844 243.92926219508854L255.57067742241844 243.92926219508854L255.57067742241844 282.26259552842185L267.72219257393357 282.26259552842185Q271.2373440890851 273.1110803769067 274.75249560423663 264.26259552842185L274.75249560423663 264.26259552842185Q276.23734408908507 260.53532280114916 277.8434046951457 256.53532280114916Q279.41916227090326 252.53532280114916 280.9646168163578 248.71714098296732Q282.5100713618124 244.86865613448248 283.9646168163578 241.32320158902792Q285.38885924060025 237.74744401327035 286.69188954363057 234.95956522539157L286.69188954363057 234.95956522539157Q287.9646168163578 231.9898682556946 289.38885924060025 229.23229249811885Q290.8434046951457 226.44441371024004 292.75249560423663 224.32320158902792Q294.6615865133275 222.17168643751276 297.05552590726694 220.8989591647855Q299.4494653012063 219.62623189205823 302.6615865133275 219.62623189205823L302.6615865133275 219.62623189205823Q305.75249560423663 219.62623189205823 308.72219257393357 220.5959288617552Q311.72219257393357 221.53532280114914 314.05552590726694 223.47471674054307Q316.38885924060025 225.38380764963398 317.8434046951457 228.14138340720976Q319.26764711938813 230.92926219508854 319.26764711938813 234.53532280114916L319.26764711938813 234.53532280114916Q319.26764711938813 237.32320158902792 318.3585562102972 241.1110803769067Q317.4797683315093 244.86865613448248 315.87370772544875 248.59592886175523L315.87370772544875 248.59592886175523L296.69188954363057 293.9898682556946Q302.2373440890851 296.0201712859976 306.4797683315093 300.5959288617552L306.4797683315093 300.5959288617552Q308.2979501496912 302.5050197708461 310.05552590726694 305.23229249811885Q311.8131016648427 307.9595652253916 313.20704105878207 311.56562583145217Q314.6009804527215 315.2019894678158 315.4494653012063 319.8383531041795Q316.2979501496912 324.44441371024004 316.2979501496912 330.2019894678158L316.2979501496912 330.2019894678158L316.2979501496912 345.3535046193309Q316.2979501496912 346.5050197708461 317.146434998176 347.26259552842185Q317.9949198466609 347.9898682556946 318.8434046951457 348.9595652253916L318.8434046951457 348.9595652253916Q320.9949198466609 351.414110679937 321.29795014969113 353.23229249811885Q321.6312834830245 355.0201712859976 321.6312834830245 356.20198946781585L321.6312834830245 356.20198946781585Q321.6312834830245 360.05047431630067 320.17673802847906 362.5959288617552Q318.75249560423663 365.14138340720973 316.35855621029725 366.74744401327035Q313.9646168163578 368.353504619331 310.8131016648427 368.9898682556946Q307.6615865133275 369.62623189205823 304.35855621029725 369.62623189205823L304.35855621029725 369.62623189205823Q300.8434046951457 369.62623189205823 297.23734408908507 368.56562583145217Q293.60098045272144 367.5050197708461 290.6312834830245 365.3232015890279Q287.6312834830245 363.14138340720973 285.78279863453963 359.8383531041795Q283.90401075575176 356.5353228011491 283.90401075575176 352.17168643751273L283.90401075575176 352.17168643751273L283.90401075575176 330.2019894678158Q283.90401075575176 325.62623189205823 283.26764711938813 321.62623189205823Q282.6312834830245 317.62623189205823 280.8131016648427 314.71714098296735Q278.9949198466609 311.77774704357336 275.8131016648427 310.14138340720973Q272.60098045272144 308.4747167405431 267.5100713618124 308.4747167405431L267.5100713618124 308.4747167405431L255.57067742241844 308.4747167405431L255.57067742241844 344.26259552842185Q255.57067742241844 348.9595652253916 255.146434998176 353.3232015890279Q254.72219257393357 357.68683795266435 253.05552590726694 361.1716864375128Q251.41916227090326 364.62623189205823 248.11613196787295 366.6868379526643Q244.8131016648427 368.77774704357336 239.176738028479 368.77774704357336L239.176738028479 368.77774704357336Q233.6312834830245 368.77774704357336 230.41916227090326 366.6868379526643Q227.23734408908507 364.62623189205823 225.6312834830245 361.1716864375128Q224.02522287696388 357.68683795266435 223.60098045272144 353.3232015890279Q223.176738028479 348.9595652253916 223.176738028479 344.26259552842185L223.176738028479 344.26259552842185Z " fill="#234e70" transform="matrix(1.1821742933483406,0,0,1.1821742933483406,0,-48.299575401565946)"/><path d="M522.4040100621703 344.26259552842185L522.4040100621703 243.92926219508854Q522.4040100621703 239.35350461933095 522.8282524864128 234.95956522539157Q523.2524949106553 230.5959288617552 524.8585555167158 227.20198946781582Q526.4646161227764 223.77774704357338 529.6464343045945 221.71714098296732Q532.8585555167158 219.62623189205823 538.4040100621703 219.62623189205823L538.4040100621703 219.62623189205823Q544.040373698534 219.62623189205823 547.3434040015643 221.71714098296732Q550.6464343045945 223.77774704357338 552.2827979409583 227.20198946781582Q553.9494646076249 230.5959288617552 554.3737070318673 234.95956522539157Q554.7979494561098 239.35350461933095 554.7979494561098 243.92926219508854L554.7979494561098 243.92926219508854L554.7979494561098 282.26259552842185L566.9494646076249 282.26259552842185Q570.4646161227764 273.1110803769067 573.9797676379279 264.26259552842185L573.9797676379279 264.26259552842185Q575.4646161227764 260.53532280114916 577.070676728837 256.53532280114916Q578.6464343045945 252.53532280114916 580.1918888500492 248.71714098296732Q581.7373433955038 244.86865613448248 583.191888850049 241.32320158902792Q584.6161312742915 237.74744401327035 585.9191615773218 234.95956522539157L585.9191615773218 234.95956522539157Q587.1918888500492 231.9898682556946 588.6161312742915 229.23229249811885Q590.070676728837 226.44441371024004 591.9797676379279 224.32320158902792Q593.8888585470188 222.17168643751276 596.2827979409583 220.8989591647855Q598.6767373348976 219.62623189205823 601.8888585470188 219.62623189205823L601.8888585470188 219.62623189205823Q604.979767637928 219.62623189205823 607.9494646076249 220.5959288617552Q610.9494646076249 221.53532280114914 613.2827979409583 223.47471674054307Q615.6161312742915 225.38380764963398 617.070676728837 228.14138340720976Q618.4949191530795 230.92926219508854 618.4949191530795 234.53532280114916L618.4949191530795 234.53532280114916Q618.4949191530795 237.32320158902792 617.5858282439885 241.1110803769067Q616.7070403652007 244.86865613448248 615.10097975914 248.59592886175523L615.10097975914 248.59592886175523L595.9191615773218 293.9898682556946Q601.4646161227764 296.0201712859976 605.7070403652007 300.5959288617552L605.7070403652007 300.5959288617552Q607.5252221833825 302.5050197708461 609.2827979409583 305.23229249811885Q611.040373698534 307.9595652253916 612.4343130924733 311.56562583145217Q613.8282524864128 315.2019894678158 614.6767373348976 319.8383531041795Q615.5252221833825 324.44441371024004 615.5252221833825 330.2019894678158L615.5252221833825 330.2019894678158L615.5252221833825 345.3535046193309Q615.5252221833825 346.5050197708461 616.3737070318673 347.26259552842185Q617.2221918803522 347.9898682556946 618.070676728837 348.9595652253916L618.070676728837 348.9595652253916Q620.2221918803523 351.414110679937 620.5252221833825 353.23229249811885Q620.8585555167158 355.0201712859976 620.8585555167158 356.20198946781585L620.8585555167158 356.20198946781585Q620.8585555167158 360.05047431630067 619.4040100621703 362.5959288617552Q617.979767637928 365.14138340720973 615.5858282439885 366.74744401327035Q613.1918888500492 368.353504619331 610.040373698534 368.9898682556946Q606.8888585470188 369.62623189205823 603.5858282439885 369.62623189205823L603.5858282439885 369.62623189205823Q600.070676728837 369.62623189205823 596.4646161227764 368.56562583145217Q592.8282524864128 367.5050197708461 589.8585555167158 365.3232015890279Q586.8585555167158 363.14138340720973 585.010070668231 359.8383531041795Q583.131282789443 356.5353228011491 583.131282789443 352.17168643751273L583.131282789443 352.17168643751273L583.131282789443 330.2019894678158Q583.131282789443 325.62623189205823 582.4949191530795 321.62623189205823Q581.8585555167158 317.62623189205823 580.040373698534 314.71714098296735Q578.2221918803522 311.77774704357336 575.040373698534 310.14138340720973Q571.8282524864128 308.4747167405431 566.7373433955037 308.4747167405431L566.7373433955037 308.4747167405431L554.7979494561098 308.4747167405431L554.7979494561098 344.26259552842185Q554.7979494561098 348.9595652253916 554.3737070318673 353.3232015890279Q553.9494646076249 357.68683795266435 552.2827979409583 361.1716864375128Q550.6464343045945 364.62623189205823 547.3434040015643 366.6868379526643Q544.040373698534 368.77774704357336 538.4040100621703 368.77774704357336L538.4040100621703 368.77774704357336Q532.8585555167158 368.77774704357336 529.6464343045945 366.6868379526643Q526.4646161227764 364.62623189205823 524.8585555167158 361.1716864375128Q523.2524949106553 357.68683795266435 522.8282524864128 353.3232015890279Q522.4040100621703 348.9595652253916 522.4040100621703 344.26259552842185L522.4040100621703 344.26259552842185ZM658.131282789443 219.62623189205823L689.040373698534 219.62623189205823Q698.5252221833825 219.62623189205823 706.8585555167158 222.0807773466037Q715.222191880352 224.53532280114914 721.4646161227765 229.44441371024004Q727.7070403652008 234.32320158902795 731.2827979409583 241.62623189205823Q734.8282524864128 248.92926219508854 734.8282524864128 258.62623189205823L734.8282524864128 258.62623189205823Q734.8282524864128 263.62623189205823 733.4949191530795 267.71714098296735Q732.161585819746 271.8383531041795 730.10097975914 275.14138340720973Q728.010070668231 278.44441371024004 725.5252221833825 280.8989591647855Q723.010070668231 283.3232015890279 720.6767373348976 285.08077734660367Q718.3131009712613 286.8383531041795 716.5252221833825 287.8686561344825Q714.7070403652006 288.8686561344825 713.9494646076248 289.08077734660367L713.9494646076248 289.08077734660367Q720.3434040015643 290.8989591647855 724.7070403652008 293.71714098296735Q729.10097975914 296.5353228011491 732.010070668231 299.8989591647855Q734.9494646076248 303.26259552842185 736.5858282439885 306.8383531041795Q738.2524949106553 310.383807649634 739.040373698534 313.74744401327035Q739.8585555167158 317.1110803769067 740.010070668231 319.9292621950885Q740.161585819746 322.74744401327035 740.161585819746 324.44441371024004L740.161585819746 324.44441371024004Q740.161585819746 332.77774704357336 738.131282789443 339.1110803769067Q736.131282789443 345.44441371024004 732.8282524864128 350.0807773466037Q729.5252221833825 354.71714098296735 725.2524949106553 357.9595652253916Q720.979767637928 361.20198946781585 716.6161312742915 363.23229249811885L716.6161312742915 363.23229249811885Q706.191888850049 368.14138340720973 693.070676728837 368.77774704357336L693.070676728837 368.77774704357336L658.131282789443 368.77774704357336Q652.070676728837 368.77774704357336 648.7676464258068 366.6868379526643Q645.4646161227765 364.62623189205823 643.979767637928 361.1716864375128Q642.4646161227765 357.68683795266435 642.2221918803523 353.3232015890279Q641.9494646076248 348.9595652253916 641.9494646076248 344.26259552842185L641.9494646076248 344.26259552842185L641.9494646076248 243.92926219508854Q641.9494646076248 239.35350461933095 642.2221918803523 234.95956522539157Q642.4646161227765 230.5959288617552 643.979767637928 227.20198946781582Q645.4646161227765 223.77774704357338 648.7676464258068 221.71714098296732Q652.070676728837 219.62623189205823 658.131282789443 219.62623189205823L658.131282789443 219.62623189205823ZM689.040373698534 303.56562583145217L674.3131009712613 303.56562583145217L674.3131009712613 343.62623189205823L689.8888585470188 343.62623189205823Q694.8888585470188 343.41411067993704 698.8282524864128 341.2928985587249L698.8282524864128 341.2928985587249Q700.5252221833825 340.44441371024004 702.131282789443 339.05047431630067Q703.7373433955038 337.6565349223613 705.010070668231 335.5959288617552Q706.2827979409583 333.5050197708461 707.040373698534 330.8080500738764Q707.7676464258068 328.08077734660367 707.7676464258068 324.44441371024004L707.7676464258068 324.44441371024004Q707.7676464258068 320.5050197708461 706.979767637928 317.5959288617552Q706.191888850049 314.65653492236123 704.8585555167158 312.4747167405431Q703.5252221833825 310.2928985587249 701.8282524864128 308.74744401327035Q700.10097975914 307.2019894678158 698.4040100621703 306.23229249811885L698.4040100621703 306.23229249811885Q694.2524949106553 303.9898682556946 689.040373698534 303.56562583145217L689.040373698534 303.56562583145217ZM687.10097975914 244.77774704357338L674.3131009712613 244.77774704357338L674.3131009712613 280.9898682556946L687.9494646076248 280.9898682556946Q692.5555252136855 280.77774704357336 696.161585819746 278.8686561344825L696.161585819746 278.8686561344825Q697.6464343045945 278.1110803769067 699.161585819746 276.8383531041795Q700.6464343045945 275.56562583145217 701.8282524864128 273.8080500738764Q702.979767637928 272.05047431630067 703.6767373348976 269.5959288617552Q704.3737070318673 267.14138340720973 704.3737070318673 263.95956522539154L704.3737070318673 263.95956522539154Q704.3737070318673 260.3232015890279 703.6161312742915 257.5959288617552Q702.8888585470188 254.89895916478548 701.6464343045945 252.92926219508854Q700.4343130924733 250.95956522539154 698.8888585470188 249.56562583145217Q697.3434040015643 248.1716864375128 695.7373433955038 247.23229249811885L695.7373433955038 247.23229249811885Q691.9191615773218 245.2019894678158 687.10097975914 244.77774704357338L687.10097975914 244.77774704357338Z " fill="#fbf8be" transform="matrix(1.1821742933483406,0,0,1.1821742933483406,0,-48.299575401565946)"/></g></svg>